<svg width="18" height="18" viewBox="0 0 18 18" fill="none" xmlns="http://www.w3.org/2000/svg">
<g clip-path="url(#clip0_1_108)">
<path d="M9 0C7.21997 0 5.47991 0.527841 3.99987 1.51677C2.51983 2.50571 1.36628 3.91131 0.685088 5.55585C0.00389957 7.20038 -0.17433 9.00998 0.172937 10.7558C0.520204 12.5016 1.37737 14.1053 2.63604 15.364C3.89472 16.6226 5.49836 17.4798 7.24419 17.8271C8.99002 18.1743 10.7996 17.9961 12.4442 17.3149C14.0887 16.6337 15.4943 15.4802 16.4832 14.0001C17.4722 12.5201 18 10.78 18 9C17.9974 6.61384 17.0484 4.32616 15.3611 2.63889C13.6738 0.951621 11.3862 0.00258081 9 0V0ZM9 16.5C7.51664 16.5 6.0666 16.0601 4.83323 15.236C3.59986 14.4119 2.63856 13.2406 2.07091 11.8701C1.50325 10.4997 1.35473 8.99168 1.64411 7.53682C1.9335 6.08197 2.64781 4.74559 3.6967 3.6967C4.7456 2.64781 6.08197 1.9335 7.53683 1.64411C8.99168 1.35472 10.4997 1.50325 11.8701 2.0709C13.2406 2.63856 14.4119 3.59985 15.236 4.83322C16.0601 6.06659 16.5 7.51664 16.5 9C16.4978 10.9885 15.7069 12.8948 14.3009 14.3009C12.8948 15.7069 10.9885 16.4978 9 16.5Z" fill="#555555"/>
<path d="M11.6521 6.348C11.7936 6.48462 11.983 6.56022 12.1797 6.55851C12.3763 6.5568 12.5644 6.47792 12.7035 6.33887C12.8426 6.19981 12.9214 6.0117 12.9231 5.81505C12.9249 5.61841 12.8493 5.42895 12.7126 5.2875C11.9784 4.55333 11.0429 4.05337 10.0245 3.85084C9.00616 3.64831 7.95059 3.75231 6.99131 4.14969C6.03203 4.54706 5.21212 5.21997 4.63527 6.08331C4.05841 6.94666 3.75052 7.96167 3.75052 9C3.75052 10.0383 4.05841 11.0533 4.63527 11.9167C5.21212 12.78 6.03203 13.4529 6.99131 13.8503C7.95059 14.2477 9.00616 14.3517 10.0245 14.1492C11.0429 13.9466 11.9784 13.4467 12.7126 12.7125C12.8493 12.5711 12.9249 12.3816 12.9231 12.185C12.9214 11.9883 12.8426 11.8002 12.7035 11.6611C12.5644 11.5221 12.3763 11.4432 12.1797 11.4415C11.983 11.4398 11.7936 11.5154 11.6521 11.652C11.1277 12.1764 10.4595 12.5334 9.73206 12.678C9.00466 12.8226 8.25071 12.7483 7.56555 12.4645C6.88038 12.1806 6.29477 11.7 5.88276 11.0833C5.47075 10.4666 5.25084 9.74164 5.25084 9C5.25084 8.25837 5.47075 7.53338 5.88276 6.91672C6.29477 6.30005 6.88038 5.81941 7.56555 5.53555C8.25071 5.25169 9.00466 5.17737 9.73206 5.32199C10.4595 5.4666 11.1277 5.82365 11.6521 6.348Z" fill="#555555"/>
</g>
<defs>
<clipPath id="clip0_1_108">
<rect width="18" height="18" fill="white"/>
</clipPath>
</defs>
</svg>
